# xmcd
# 
# Track frame offsets:
#     150
#     18137
#     37704
#     53721
#     70402
#     95395
#     116743
#     141129
#     157503
#     179582
#     210758
#     227245
#     245277
#     268685
#     281297
# 
# Disc length: 4112
# 
# Revision: 2
# Processed by: cddbd v1.5.2PL0 Copyright (c) Steve Scherf et al.
# Submitted via: fre:ac v1.0.31
# 
DISCID=bb100e0f
DTITLE=Johnny Winter - True To The Blues - The Johnny Winter Story Disc 4
DYEAR=2014
DGENRE=Blues
TTITLE0=One Step At A Time
TTITLE1=Honest I Do
TTITLE2=Nickel Blues
TTITLE3=Talk Is Cheap
TTITLE4=Wolf In Sheep's Clothing
TTITLE5=Bon Ton Roulet
TTITLE6=Don't Take Advantage Of Me
TTITLE7=Master Mechanic
TTITLE8=Mojo Boogie
TTITLE9=Stranger Blues (Live)
TTITLE10=Illustrated Man
TTITLE11=Hard Way
TTITLE12=Highway 61 Revisted (Live At The Bob Dylan 30th Anniversary Concert Celebration)
TTITLE13=Maybellene (feat. Vince Gill)
TTITLE14=Dust My Broom (feat. Derek Trucks)
EXTD=
EXTT0=
EXTT1=
EXTT2=
EXTT3=
EXTT4=
EXTT5=
EXTT6=
EXTT7=
EXTT8=
EXTT9=
EXTT10=
EXTT11=
EXTT12=
EXTT13=
EXTT14=
PLAYORDER=
